<svg fill="none" xmlns="http://www.w3.org/2000/svg" viewBox="8 8 752 496">
    <path d="M757 11H11V489.757L22.2426 501H757V11ZM21 504L8 491V8H760V504H21Z" clip-rule="evenodd" fill="url(#b)"
          fill-rule="evenodd"/>
    <path d="m19.612 483.54c-0.8468 0.791-0.9978 1.633-0.3727 2.631 0.711 1.135 1.3609 2.312 2.1083 3.422 0.7455 1.107 1.5483 2.179 2.3932 3.21 0.2943 0.36 1.2826-0.798 1.0398-1.162-2.4428-3.662-2.2441-3.783-1.2195-4.796 1.1679-1.159 2.3683-1.891 3.6451-2.666 0.7761-0.471 1.3801-0.395 1.9344 0.361 0.7111 0.971 1.4757 1.9 2.1963 2.863 1.317 1.762 1.2941 1.828-0.4071 3.149-3.3642 2.605-6.8717 5.023-9.8823 8.072-0.518 0.523-0.9787 0.466-1.4967 0.013-2.3683-2.076-4.7499-4.138-7.1182-6.216-0.4531-0.399-1.5273-1.239-2.1065-1.373-0.2102-0.049-0.38799 0.166-0.3058 0.369 0.2256 0.556 11.749 12.586 11.749 12.586s9.7954-9.674 17.56-12.063c0.1224-0.037 0.153-0.199 0.1033-0.318-2.4467-5.936-9.0661-13.697-9.7753-14.435-0.1968-0.205-0.5046-0.245-0.7397-0.088-0.8621 0.568-7.3419 4.603-9.305 6.441z"
          fill="url(#a)"/>
    <defs>
        <linearGradient id="b" x1="384" x2="384" y1="8" y2="504" gradientUnits="userSpaceOnUse">
            <stop stop-color="#F8C880" offset="0"/>
            <stop stop-color="#D5A263" offset=".5"/>
            <stop stop-color="#AD7642" offset="1"/>
        </linearGradient>
        <linearGradient id="a" x1="35" x2="19.5" y1="483" y2="496.5" gradientUnits="userSpaceOnUse">
            <stop stop-color="#F8C880" offset="0"/>
            <stop stop-color="#D5A263" offset=".5"/>
            <stop stop-color="#AD7642" offset="1"/>
        </linearGradient>
    </defs>
</svg>